<svg xmlns="http://www.w3.org/2000/svg" viewBox="0 0 412.238 129">

  <defs>
    <linearGradient id="pdl-brand-gradient" x1="0%" y1="0%" x2="0%" y2="100%">
      <stop offset="0%" stopColor="#6155F2"/>
      <stop offset="100%" stopColor="#E54783"/>
    </linearGradient>
  </defs>



          <path d="M37.9136 1.49476C39.2773 0.26078 41.1692 -0.24856 42.9839 0.114881L107.326 13.0045C108.495 13.2388 109.565 13.8219 110.38 14.6793L138.935 44.7047C139.74 45.5509 140.258 46.6224 140.41 47.7731L144.954 82.2565C145.218 84.2626 144.341 86.2239 142.709 87.4127L142.373 87.6403L103.645 111.849L103.292 120.938C103.194 123.453 101.378 125.562 98.8999 126.139L87.271 128.846C85.0052 129.374 82.6204 128.518 81.2583 126.656L60.1557 97.8092L43.3198 88.7077C43.2773 88.6847 43.2355 88.6605 43.1968 88.6383L27.1626 79.4596L13.189 76.6412C11.0577 76.2114 9.34079 74.6391 8.79735 72.5612L0.176255 39.5914C-0.340695 37.6143 0.300434 35.5315 1.82469 34.152L37.9136 1.49476ZM66.7671 88.651L66.8696 88.6989C67.6131 89.1009 68.2585 89.6598 68.7544 90.3375L88.3647 117.145L91.9966 116.3L92.2973 108.572L92.8872 88.6442L51.9399 82.694L66.7671 88.651ZM46.5181 49.0817L101.566 78.9899C103.416 79.9954 104.558 81.9214 104.497 84.0055L104.072 98.3444L119.185 88.902L119.194 88.8961L128.861 82.8493L65.2729 41.0914L46.5181 49.0817ZM12.1274 40.0455L19.0317 66.4508L30.2456 68.7125L69.0991 74.1061L30.8686 53.3356C28.7412 52.1797 27.5828 49.829 28.0307 47.4703L33.0356 21.1246L12.1274 40.0455ZM77.8765 35.9293L131.968 71.4508L129.266 50.9469L104.672 25.0866L77.8765 35.9293ZM41.27 39.1627L63.561 29.6666L63.6587 29.6256L86.8081 20.2565L46.3999 12.1637L41.27 39.1627Z" fill="#FFFFFF"/><path d="M205 20.3398H233.416C242.973 20.3398 250.355 22.5158 255.56 26.8678C261.704 31.9025 264.776 38.5585 264.776 46.8358C264.776 55.1985 261.704 61.8972 255.56 66.9318C250.099 71.5398 242.717 73.8438 233.416 73.8438H221.768V108.66H205V20.3398ZM231.368 60.7878C235.891 60.7878 239.688 59.6785 242.76 57.4598C246.003 55.0705 247.624 51.5292 247.624 46.8358C247.624 42.3985 245.875 38.8998 242.376 36.3398C239.645 34.3772 235.848 33.3958 230.984 33.3958H221.64V60.7878H231.368Z" fill="#FFFFFF"/><path d="M276.003 20.3398H304.291C318.456 20.3398 329.635 24.0518 337.827 31.4758C347.214 39.6678 351.907 50.6332 351.907 64.3718C351.907 78.3665 347.214 89.4598 337.827 97.6518C329.55 104.99 318.371 108.66 304.291 108.66H276.003V20.3398ZM304.931 94.5798C313.72 94.5798 320.718 92.1478 325.923 87.2838C331.811 81.5665 334.755 73.9718 334.755 64.4998C334.755 54.8572 331.811 47.1771 325.923 41.4598C320.718 36.6811 313.72 34.2918 304.931 34.2918H292.643V94.5798H304.931Z" fill="#FFFFFF"/><path d="M364.878 20.3398H381.39V94.8358H412.238V108.66H364.878V20.3398Z" fill="#FFFFFF"/>
        </svg>
