<svg xmlns="http://www.w3.org/2000/svg" viewBox="0 0 24 24">
  <path fill="#1A73E8" d="M19.527 4.799c1.212 2.608.937 5.678-.405 8.173-1.101 2.047-2.744 3.74-4.098 5.612-.619.858-1.244 1.75-1.669 2.727-.141.325-.263.658-.383.992-.121.333-.224.673-.34 1.008-.109.314-.236.684-.627.687h-.007c-.466-.001-.579-.53-.695-.887-.284-.874-.581-1.713-1.019-2.525-.51-.944-1.145-1.817-1.79-2.671L19.527 4.799zM8.545 7.705l-3.959 4.707c.724 1.54 1.821 2.863 2.871 4.18.247.31.494.622.737.936l7.517-8.502-.02.019a3.463 3.463 0 01-2.199.788 3.478 3.478 0 01-2.196-.79 3.443 3.443 0 01-.75-1.338z"/>
  <path fill="#EA4335" d="M11.855 1.9c-1.407.144-2.657.85-3.635 1.848l4.223 5.028c.06-.116.109-.238.146-.365a3.401 3.401 0 00-.056-1.99 3.428 3.428 0 00-1.185-1.598l-.019-.014c.185-.25.427-.462.703-.605.276-.144.599-.204.912-.174.406.038.783.244 1.05.556.267.312.415.71.416 1.121-.001-.056.031-.145.062-.211.036-.076.086-.148.14-.213l-.058-.083c-.294-.42-.7-.749-1.174-.955-.472-.204-.994-.281-1.508-.209-.043-.208-.017-.135.017-.135z"/>
  <path fill="#FBBC04" d="M13.615 6.42c-.019-.014.13.098.115.087.146.108.284.226.412.354.128.128.246.266.354.412.108.146.205.301.29.462.086.163.16.331.222.505a3.32 3.32 0 010 2.317c-.061.174-.136.342-.221.505a3.436 3.436 0 01-.29.463c-.108.146-.226.284-.353.412l-.011.011c-.017.017-.033.034-.05.05L7.494 17.61l7.517-8.507-1.42-2.664.024.001z"/>
  <path fill="#34A853" d="M8.32 3.878C7.16 5.171 6.5 6.895 6.5 8.75c0 .743.107 1.462.306 2.14l6.35-7.176a5.75 5.75 0 00-1.302-.148c-1.288 0-2.499.315-3.554.87z"/>
  <path fill="#4285F4" d="M12 8.75a2.5 2.5 0 100-5 2.5 2.5 0 000 5z"/>
</svg>
