<svg viewBox="0 0 240 30" xmlns="http://www.w3.org/2000/svg" xmlns:xlink="http://www.w3.org/1999/xlink"><defs><path d="M.27.124h22.355v29.501H.271z" id="a"/><path d="M.232.061H39.68v22.355H.232z" id="c"/></defs><g fill="none" fill-rule="evenodd"><path d="M10.857 8.983c1.893 0 3.517.678 4.872 2.033 1.355 1.336 2.032 2.96 2.032 4.872 0 1.91-.677 3.535-2.032 4.871-1.355 1.355-2.979 2.032-4.872 2.032H0V17.53h10.857c.446 0 .825-.157 1.142-.473.334-.334.5-.724.5-1.17 0-.445-.166-.835-.5-1.17a1.558 1.558 0 00-1.142-.472H6.905c-1.912 0-3.537-.677-4.873-2.032C.678 10.858 0 9.233 0 7.34 0 5.43.678 3.805 2.033 2.469 3.368 1.115 4.992.437 6.905.437h10.188V5.7H6.904a1.65 1.65 0 00-1.17.473 1.586 1.586 0 00-.472 1.169c0 .445.157.835.473 1.17.334.315.724.472 1.17.472h3.952z" fill="#FFF"/><g transform="translate(19.5 .314)"><mask fill="#fff" id="b"><use href="#a"/></mask><path d="M11.462 5.385c-1.633 0-3.034.575-4.204 1.726-1.15 1.17-1.726 2.57-1.726 4.204 0 1.614.576 3.006 1.726 4.175 1.17 1.152 2.57 1.726 4.204 1.726 1.615 0 3.007-.574 4.176-1.726 1.15-1.169 1.726-2.56 1.726-4.175 0-1.633-.576-3.035-1.726-4.204-1.17-1.15-2.56-1.726-4.176-1.726zM5.532 29.61l-5.261.016v-17.67h.028a8.534 8.534 0 01-.028-.64c0-3.1 1.094-5.735 3.285-7.906C5.727 1.219 8.362.124 11.462.124c3.08 0 5.707 1.095 7.879 3.285 2.19 2.171 3.284 4.806 3.284 7.906 0 3.08-1.095 5.706-3.284 7.878-2.172 2.19-4.798 3.285-7.879 3.285-2.153 0-4.13-.566-5.93-1.698v8.83z" fill="#FFF" mask="url(#b)"/></g><path d="M55.327 5.699c-1.633 0-3.034.575-4.204 1.726-1.15 1.169-1.726 2.56-1.726 4.175 0 1.634.575 3.035 1.726 4.204 1.17 1.151 2.57 1.726 4.204 1.726 1.615 0 3.006-.575 4.175-1.726 1.15-1.17 1.726-2.57 1.726-4.204 0-1.614-.575-3.006-1.726-4.175-1.169-1.151-2.56-1.726-4.175-1.726m0 17.093c-3.1 0-5.735-1.095-7.906-3.285-2.19-2.172-3.285-4.807-3.285-7.907 0-3.08 1.094-5.706 3.285-7.878 2.171-2.19 4.806-3.285 7.906-3.285 3.08 0 5.707 1.095 7.878 3.285 2.19 2.172 3.285 4.798 3.285 7.878 0 3.1-1.095 5.735-3.285 7.907-2.171 2.19-4.798 3.285-7.878 3.285M68.5 11.6c0-3.08 1.095-5.706 3.285-7.878 2.172-2.19 4.806-3.285 7.907-3.285h4.593V5.7h-4.593c-1.634 0-3.035.575-4.204 1.726-1.151 1.169-1.726 2.56-1.726 4.175v11.192H68.5V11.6z" fill="#FFF"/><g transform="translate(103.875 .314)"><mask fill="#fff" id="d"><use href="#c"/></mask><path d="M34.418 11.225c0-1.615-.575-3.007-1.726-4.176-1.15-1.15-2.543-1.726-4.176-1.726s-3.034.575-4.203 1.726c-1.151 1.169-1.727 2.56-1.727 4.176v11.19h-5.26v-11.19c0-1.615-.577-3.007-1.727-4.176-1.17-1.15-2.56-1.726-4.175-1.726-1.634 0-3.035.575-4.204 1.726-1.151 1.169-1.726 2.56-1.726 4.176v11.19H.232v-11.19c0-3.08 1.095-5.707 3.286-7.879C5.688 1.156 8.324.061 11.424.061c3.452 0 6.3 1.327 8.546 3.981 2.227-2.654 5.076-3.98 8.546-3.98 3.08 0 5.717 1.095 7.906 3.284 2.172 2.172 3.257 4.798 3.257 7.879v11.19h-5.261v-11.19z" fill="#FFF" mask="url(#d)"/></g><path d="M156.765 5.699c-1.634 0-3.035.575-4.204 1.726-1.15 1.169-1.726 2.56-1.726 4.175 0 1.634.575 3.035 1.726 4.204 1.17 1.151 2.57 1.726 4.204 1.726 1.614 0 3.006-.575 4.175-1.726 1.15-1.17 1.726-2.57 1.726-4.204 0-1.614-.575-3.006-1.726-4.175-1.169-1.151-2.56-1.726-4.175-1.726m0 17.093c-3.1 0-5.735-1.095-7.907-3.285-2.19-2.172-3.285-4.807-3.285-7.907 0-3.08 1.095-5.706 3.285-7.878 2.172-2.19 4.806-3.285 7.907-3.285 3.08 0 5.707 1.095 7.878 3.285 2.19 2.172 3.285 4.798 3.285 7.878 0 3.1-1.095 5.735-3.285 7.907-2.171 2.19-4.798 3.285-7.878 3.285M175.208 22.791h-5.262v-11.19c0-3.081 1.095-5.707 3.285-7.88 2.172-2.188 4.807-3.284 7.907-3.284 3.08 0 5.706 1.096 7.878 3.285 2.19 2.172 3.285 4.798 3.285 7.878v11.191h-5.261v-11.19c0-1.615-.576-3.007-1.727-4.176-1.169-1.15-2.56-1.726-4.175-1.726-1.634 0-3.035.575-4.204 1.726-1.151 1.169-1.726 2.56-1.726 4.175v11.191zM199.553 22.791h-5.261V.437h5.261v8.491c2.21-.167 4.074-1.058 5.596-2.673 1.522-1.651 2.283-3.59 2.283-5.818h5.261c0 4.696-1.912 8.417-5.734 11.163 3.822 2.766 5.734 6.496 5.734 11.191h-5.261c0-2.227-.761-4.166-2.283-5.818-1.522-1.614-3.387-2.505-5.596-2.672v8.49zM225.57 8.983c1.893 0 3.517.678 4.871 2.033 1.355 1.336 2.033 2.96 2.033 4.872 0 1.91-.678 3.535-2.033 4.871-1.354 1.355-2.978 2.032-4.87 2.032h-10.858V17.53h10.857c.445 0 .825-.157 1.14-.473.335-.334.502-.724.502-1.17 0-.445-.167-.835-.501-1.17a1.557 1.557 0 00-1.14-.472h-3.954c-1.912 0-3.536-.677-4.872-2.032-1.355-1.355-2.032-2.98-2.032-4.872 0-1.911.677-3.536 2.032-4.872 1.336-1.354 2.96-2.032 4.872-2.032h10.189V5.7h-10.19a1.65 1.65 0 00-1.169.473 1.587 1.587 0 00-.473 1.169c0 .445.158.835.473 1.17.334.315.724.472 1.17.472h3.953zM97.495 17.53c-1.633 0-3.034-.576-4.204-1.726-1.15-1.169-1.726-2.56-1.726-4.176v-5.93h7.563V.439H86.304v11.19c0 3.081 1.094 5.707 3.285 7.879 2.171 2.19 4.806 3.284 7.906 3.284h4.593v-5.26h-4.593z" fill="#FFF"/><path d="M239.994 20.06a2.732 2.732 0 11-5.464-.001 2.732 2.732 0 015.464 0" fill="#FF0F50"/></g></svg>
