<svg viewBox="0 0 48 48" fill="none" xmlns="http://www.w3.org/2000/svg"><path d="M40.8358 0H7.16418C3.20751 0 0 3.20751 0 7.16418V40.8358C0 44.7925 3.20751 48 7.16418 48H40.8358C44.7925 48 48 44.7925 48 40.8358V7.16418C48 3.20751 44.7925 0 40.8358 0Z" fill="#0056FF"></path><path d="M36.9189 11.0391H14.6398C14.2441 11.0391 13.9233 11.3599 13.9233 11.7555V15.1227C13.9233 15.5184 14.2441 15.8391 14.6398 15.8391H36.9189C37.3146 15.8391 37.6353 15.5184 37.6353 15.1227V11.7555C37.6353 11.3599 37.3146 11.0391 36.9189 11.0391Z" fill="#F0F0F0"></path><path d="M36.9138 32.16H13.7706C13.375 32.16 13.0542 32.4808 13.0542 32.8765V36.2436C13.0542 36.6393 13.375 36.96 13.7706 36.96H36.9138C37.3094 36.96 37.6302 36.6393 37.6302 36.2436V32.8765C37.6302 32.4808 37.3094 32.16 36.9138 32.16Z" fill="#F0F0F0"></path><path d="M26.5505 21.5995H10.9913C10.5957 21.5995 10.2749 21.9202 10.2749 22.3159V25.6831C10.2749 26.0787 10.5957 26.3995 10.9913 26.3995H26.5505C26.9461 26.3995 27.2669 26.0787 27.2669 25.6831V22.3159C27.2669 21.9202 26.9461 21.5995 26.5505 21.5995Z" fill="#F0F0F0"></path></svg>
