<svg width="10.9375rem" height="2.25rem" viewBox="0 0 174 36" fill="none" xmlns="http://www.w3.org/2000/svg">
<g clip-path="url(#clip0_4921_19843)">
<path fill-rule="evenodd" clip-rule="evenodd" d="M31.8492 29.4962C34.5294 26.2648 35.9962 22.1985 35.9961 18.0002C35.9961 17.9615 35.9961 17.9227 35.9959 17.884C35.9946 17.6143 35.7727 17.4002 35.503 17.4002H32.5053C32.2209 17.4002 31.9946 17.6373 31.9959 17.9218C31.996 17.9479 31.9961 17.9741 31.9961 18.0002C31.9991 21.1523 30.9401 24.2135 28.99 26.6899C27.0398 29.1663 24.3122 30.9135 21.2472 31.6495C18.1822 32.3855 14.9587 32.0675 12.0967 30.7467C9.23462 29.4259 6.90103 27.1794 5.47239 24.3697C4.04376 21.5599 3.60341 18.3508 4.22238 15.2601C4.84136 12.1693 6.48357 9.37727 8.88405 7.33436C11.2845 5.29146 14.3033 4.11687 17.4532 4.00009C20.6031 3.88332 23.7005 4.83118 26.2457 6.69074C26.7098 7.02969 27.1522 7.39727 27.5703 7.79129C27.7137 7.92639 27.9021 8.00461 28.0991 8.00461H30.7457C31.0218 8.00461 31.2457 7.78075 31.2457 7.50461V6.10719C31.2457 5.91917 31.1755 5.73749 31.046 5.60116C28.2261 2.63198 24.4757 0.710403 20.4123 0.158798C16.2522 -0.40593 12.0255 0.500767 8.46309 2.72212C4.90066 4.94347 2.22642 8.33982 0.902754 12.3239C-0.42091 16.3081 -0.310784 20.6295 1.21409 24.541C2.73896 28.4525 5.58272 31.7083 9.25367 33.7453C12.9246 35.7823 17.192 36.4726 21.3179 35.6967C25.4438 34.9208 29.169 32.7275 31.8492 29.4962Z" fill="#02C29F"></path>
<path d="M38.5 9.74902C38.5 10.1632 38.1642 10.499 37.75 10.499H34.75C34.3358 10.499 34 10.8348 34 11.249V14.25C34 14.6642 33.6642 15 33.25 15H30.25C29.8358 15 29.5 15.3358 29.5 15.75V18.749C29.5 19.1632 29.1642 19.499 28.75 19.499H25.75C25.3358 19.499 25 19.8348 25 20.249V23.25C25 23.6642 24.6642 24 24.25 24H21.25C20.8358 24 20.5 24.3358 20.5 24.75V27.749C20.5 28.1632 20.1642 28.499 19.75 28.499H16.25C15.8358 28.499 15.5 28.1632 15.5 27.749V24.75C15.5 24.3358 15.1642 24 14.75 24H11.75C11.3358 24 11 23.6642 11 23.25V20.249C11 19.8348 10.6642 19.499 10.25 19.499H7.25C6.83579 19.499 6.5 19.1632 6.5 18.749V15.249C6.5 14.8348 6.83579 14.499 7.25 14.499H10.75C11.1642 14.499 11.5 14.8348 11.5 15.249V18.25C11.5 18.6642 11.8358 19 12.25 19H15.25C15.6642 19 16 19.3358 16 19.75V22.749C16 23.1632 16.3358 23.499 16.75 23.499H19.25C19.6642 23.499 20 23.1632 20 22.749V19.75C20 19.3358 20.3358 19 20.75 19H23.75C24.1642 19 24.5 18.6642 24.5 18.25V15.249C24.5 14.8348 24.8358 14.499 25.25 14.499H28.25C28.6642 14.499 29 14.1632 29 13.749V10.75C29 10.3358 29.3358 10 29.75 10H32.75C33.1642 10 33.5 9.66421 33.5 9.25V6.24902C33.5 5.83481 33.8358 5.49902 34.25 5.49902H37.75C38.1642 5.49902 38.5 5.83481 38.5 6.24902V9.74902Z" fill="#02C29F"></path>
</g>
<path d="M53.5462 12.3753C53.8914 12.3753 54.1712 12.6552 54.1712 13.0003V26.9623C54.1712 27.3075 53.8914 27.5873 53.5462 27.5873H50.5C50.1548 27.5873 49.875 27.3075 49.875 26.9623V13.2503C49.875 12.9052 49.5952 12.6253 49.25 12.6253H46.625C46.2798 12.6253 46 12.3455 46 12.0003V9.12533C46 8.78015 46.2798 8.50033 46.625 8.50033H49.625C49.9702 8.50033 50.25 8.78015 50.25 9.12533V11.7503C50.25 12.0955 50.5298 12.3753 50.875 12.3753H53.5462Z" fill="#011C21"></path>
<path d="M49.875 5.87533C49.875 6.22051 50.1548 6.50033 50.5 6.50033H53.5462C53.8914 6.50033 54.1712 6.22051 54.1712 5.87533V2.8291C54.1712 2.48392 53.8914 2.2041 53.5462 2.2041H50.5C50.1548 2.2041 49.875 2.48392 49.875 2.8291V5.87533Z" fill="#011C21"></path>
<path d="M60.908 26.4373C59.4672 25.665 58.2816 24.4911 57.4951 23.058C56.6685 21.5268 56.2509 19.8083 56.283 18.0685C56.2538 16.3353 56.6844 14.6252 57.5309 13.1125C58.3417 11.6759 59.5356 10.4928 60.9795 9.69519C62.5021 8.8613 64.2154 8.43743 65.9512 8.46514C67.7592 8.44231 69.5368 8.93072 71.0793 9.87411C72.4321 10.7032 73.4207 11.747 74.0452 13.0053C74.1829 13.2829 74.0685 13.6135 73.8014 13.7705L71.4858 15.1321C71.1164 15.3492 70.6403 15.1361 70.4653 14.745C70.1598 14.062 69.6666 13.4725 69.0352 13.0499C68.1295 12.425 67.0514 12.0983 65.9512 12.115C64.2872 12.115 62.9454 12.6518 61.9255 13.7253C60.9057 14.7988 60.3995 16.2465 60.407 18.0685C60.407 19.8934 60.9094 21.3315 61.9144 22.3826C62.9193 23.4337 64.2611 23.9556 65.94 23.9481C67.0312 23.9606 68.0984 23.6271 68.9883 22.9954C69.6166 22.5756 70.1214 22.0029 70.4587 21.3367C70.6434 20.972 71.0976 20.7908 71.4488 21.0001L73.7101 22.3474C73.9816 22.5092 74.092 22.8496 73.9441 23.129C73.2706 24.4014 72.2593 25.4682 71.0167 26.2092C69.4936 27.153 67.7316 27.6397 65.94 27.6114C64.1906 27.6493 62.4599 27.2455 60.908 26.4373Z" fill="#011C21"></path>
<path fill-rule="evenodd" clip-rule="evenodd" d="M96.5547 9.09511C96.5547 8.74992 96.8345 8.47009 97.1797 8.47009H99.9152C100.26 8.47009 100.54 8.74983 100.54 9.09495L100.541 11.2433C102.111 9.393 104.198 8.4686 106.803 8.47009C108.472 8.44117 110.117 8.87962 111.551 9.73593C112.926 10.5684 114.042 11.7681 114.773 13.2002C115.546 14.7174 115.939 16.3999 115.916 18.1025C115.938 19.7908 115.54 21.458 114.756 22.9534C114.017 24.3711 112.902 25.558 111.533 26.3841C110.102 27.2309 108.465 27.663 106.803 27.632C104.864 27.632 103.213 27.1467 101.849 26.1761L100.532 25.239V33.9378C100.532 34.283 100.252 34.5628 99.9067 34.5628H97.1803C96.8351 34.5628 96.5553 34.283 96.5553 33.9378L96.5547 9.09511ZM111.79 18.098C111.789 19.8329 111.259 21.248 110.202 22.3433C110.2 22.3448 110.201 22.3473 110.203 22.3473C110.205 22.3473 110.206 22.3498 110.205 22.3513C109.142 23.446 107.765 23.9918 106.074 23.9889C105.055 24.0054 104.051 23.7482 103.166 23.2441C102.314 22.7494 101.613 22.0309 101.14 21.1664C100.631 20.2252 100.374 19.168 100.395 18.098C100.379 17.0129 100.635 15.9409 101.14 14.9804C101.605 14.091 102.306 13.3472 103.166 12.8312C104.048 12.3164 105.053 12.0526 106.074 12.0685C107.758 12.07 109.133 12.6366 110.198 13.7683C111.261 14.9178 111.792 16.3611 111.79 18.098Z" fill="#011C21"></path>
<path d="M121.479 26.4372C120.098 25.6559 118.973 24.4905 118.24 23.0825C117.458 21.5559 117.065 19.8597 117.095 18.1445C117.071 16.4221 117.471 14.7202 118.258 13.1885C118.99 11.75 120.112 10.547 121.497 9.71749C122.894 8.91497 124.474 8.48542 126.086 8.47015C127.697 8.45487 129.285 8.85438 130.698 9.63027C132.001 10.4037 133.049 11.542 133.712 12.9044C134.438 14.4137 134.799 16.0721 134.768 17.7464C134.764 18.0944 134.748 18.4421 134.72 18.7889C134.695 19.1044 134.427 19.341 134.11 19.341H121.289C121.498 21.0049 122.058 22.2409 122.971 23.049C123.883 23.8571 125.055 24.2612 126.486 24.2612C127.757 24.2612 128.808 24.0017 129.64 23.4829C130.266 23.0921 130.794 22.5336 131.224 21.8071C131.44 21.441 131.941 21.3296 132.258 21.6127L134.097 23.2526C134.324 23.4553 134.374 23.7942 134.196 24.0412C133.404 25.1392 132.344 26.021 131.114 26.6005C129.634 27.2947 128.017 27.6442 126.383 27.6225C124.512 27.6285 122.877 27.2334 121.479 26.4372ZM130.505 16.4403V16.4045C130.505 15.0179 130.113 13.9094 129.329 13.0789C128.545 12.2484 127.458 11.8324 126.07 11.8309C124.918 11.8045 123.8 12.2271 122.953 13.0096C122.091 13.7938 121.548 14.9374 121.325 16.4403H130.505Z" fill="#011C21"></path>
<path fill-rule="evenodd" clip-rule="evenodd" d="M140.838 26.3842C139.468 25.5587 138.353 24.3716 137.615 22.9534C136.831 21.458 136.432 19.7908 136.454 18.1026C136.431 16.3998 136.823 14.7171 137.597 13.2002C138.327 11.7678 139.444 10.5679 140.82 9.73598C142.253 8.87912 143.898 8.44063 145.568 8.47015C146.809 8.4495 148.039 8.69824 149.175 9.19923C150.205 9.65957 151.118 10.3478 151.843 11.212V9.09515C151.843 8.74997 152.123 8.47015 152.468 8.47015H155.204C155.549 8.47015 155.829 8.74997 155.829 9.09515V19.1425V27.6388H154.332H152.868H152.468C152.123 27.6388 151.843 27.359 151.843 27.0138V24.9318L151.839 24.9372C150.36 26.7368 148.272 27.6373 145.577 27.6388C143.911 27.67 142.27 27.2355 140.838 26.3842ZM151.233 21.1754C150.758 22.0388 150.058 22.7567 149.206 23.252C149.205 23.2525 149.204 23.2519 149.204 23.2509C149.204 23.2499 149.203 23.2493 149.202 23.2497C148.317 23.7516 147.314 24.0069 146.297 23.9889C144.61 23.9904 143.236 23.4417 142.173 22.3429C141.11 21.244 140.578 19.8276 140.578 18.0936C140.578 16.3402 141.11 14.897 142.173 13.7638C143.236 12.6307 144.61 12.0641 146.297 12.0641C147.317 12.0482 148.323 12.3119 149.204 12.8268C150.067 13.347 150.769 14.0954 151.233 14.9894C151.738 15.9499 151.994 17.0219 151.977 18.107C151.999 19.177 151.742 20.2342 151.233 21.1754Z" fill="#011C21"></path>
<path d="M160.11 26.1938C159.405 25.7588 158.8 25.18 158.334 24.4952C157.962 23.9483 157.686 23.3437 157.515 22.707C157.439 22.4249 157.597 22.139 157.866 22.0255L160.43 20.9435C160.829 20.7753 161.272 21.0555 161.368 21.4772C161.561 22.3203 161.968 22.986 162.59 23.4743C163.415 24.1214 164.482 24.4487 165.793 24.4561C166.66 24.4909 167.521 24.2932 168.287 23.8836C168.589 23.7258 168.84 23.4859 169.012 23.1915C169.183 22.8972 169.269 22.5603 169.257 22.2197C169.257 21.504 168.905 20.9822 168.202 20.6541C167.498 20.3261 166.418 20.0279 164.961 19.7596C163.749 19.5455 162.553 19.2466 161.383 18.865C160.454 18.5472 159.624 17.9921 158.976 17.2547C158.305 16.5093 157.97 15.4872 157.97 14.1886C157.96 13.1277 158.312 12.0951 158.967 11.261C159.681 10.3623 160.61 9.65907 161.669 9.21692C162.839 8.71255 164.103 8.45886 165.377 8.47218C167.524 8.47218 169.309 8.94034 170.731 9.87667C171.404 10.2942 171.981 10.8484 172.426 11.5034C172.772 12.0145 173.033 12.5781 173.197 13.1713C173.277 13.462 173.107 13.7557 172.825 13.8618L170.325 14.8016C169.932 14.9494 169.511 14.672 169.405 14.2654C169.225 13.5693 168.87 12.9987 168.34 12.5537C167.613 11.9424 166.625 11.636 165.377 11.6345C164.333 11.6345 163.519 11.8485 162.935 12.2764C162.657 12.4586 162.429 12.7081 162.272 13.0016C162.116 13.2952 162.036 13.6234 162.04 13.956C162.034 14.1821 162.081 14.4065 162.177 14.6112C162.274 14.8159 162.417 14.9952 162.595 15.1346C163.006 15.4562 163.477 15.6919 163.981 15.8279C164.545 15.9814 165.349 16.1626 166.392 16.3713C167.631 16.6077 168.852 16.926 170.049 17.3241C170.99 17.6486 171.835 18.2019 172.509 18.9343C173.189 19.6798 173.53 20.6966 173.531 21.9848C173.531 23.8098 172.815 25.2068 171.382 26.176C169.949 27.1451 168.09 27.6304 165.804 27.6319C163.487 27.6319 161.589 27.1525 160.11 26.1938Z" fill="#011C21"></path>
<path d="M76.8414 23.0068C75.9966 21.508 75.5659 19.8006 75.5951 18.0687C75.5934 17.9591 75.5934 17.8496 75.5951 17.7403V9.20215C75.5951 8.85697 75.875 8.57715 76.2201 8.57715H79.0001C79.3453 8.57715 79.6251 8.85697 79.6251 9.20215V18.0687C79.6251 19.8473 80.141 21.2735 81.1732 22.347C82.2058 23.4204 83.5162 23.9579 85.1053 23.9594C86.7001 23.9594 88.0049 23.4219 89.02 22.347C90.0421 21.2735 90.5528 19.8473 90.5528 18.0687V9.20215C90.5528 8.85697 90.8326 8.57715 91.1778 8.57715H93.9774C94.3226 8.57715 94.6024 8.85697 94.6024 9.20215V17.7493C94.6041 17.8542 94.6041 17.9591 94.6024 18.0642C94.6047 18.2022 94.6041 18.3402 94.6006 18.4778V25.167C94.5727 26.7829 94.1446 28.3667 93.3549 29.7682C92.5367 31.1995 91.3539 32.3734 89.9338 33.1632C88.6292 33.8688 87.1959 34.2802 85.7294 34.373C85.3846 34.3948 85.104 34.1128 85.104 33.7673V31.3504C85.104 31.0052 85.3846 30.7291 85.7283 30.6965C87.0426 30.572 88.1392 30.0441 89.0182 29.1129C89.7895 28.3032 90.2696 27.2927 90.459 26.0817C90.2884 26.1928 90.1138 26.298 89.9355 26.3972C88.4417 27.205 86.7796 27.6271 85.0922 27.6271C83.4056 27.6271 81.7442 27.2054 80.2513 26.3982C80.2504 26.3977 80.2493 26.3984 80.2493 26.3994C80.2493 26.4004 80.2482 26.401 80.2474 26.4005C80.0664 26.2989 79.8894 26.1911 79.7164 26.0773C79.3047 25.8065 78.9164 25.5018 78.5551 25.167C77.8828 24.544 77.3039 23.8163 76.8414 23.0068Z" fill="#011C21"></path>
<defs>
<clipPath id="clip0_4921_19843">
<rect width="38.5007" height="36" fill="white"></rect>
</clipPath>
</defs>
</svg>
