<svg xmlns="http://www.w3.org/2000/svg" viewBox="0 0 24 24">
  <path fill="#006BFF" d="M19.655 14.262c.281.207.598.362.939.457l.006-.011c.348.083.671.245.945.474.288.239.463.577.464.949.011.288-.03.575-.121.849v.005c-.191.463-.463.888-.802 1.257-1.096 1.183-2.65 1.749-4.752 1.749h-2.499c-1.523 0-2.808-.484-3.826-1.443l-1.696-1.593a5.007 5.007 0 0 0-3.489-1.404H2.31A5.019 5.019 0 0 1 0 12v-.002A5.02 5.02 0 0 1 4.516 6.998H4.52c.152.028.336.006.51.005h.058c1.298.011 2.549-.485 3.489-1.383L10.271 4.03a5.34 5.34 0 0 1 3.824-1.464h2.499c2.101 0 3.655.566 4.752 1.746.34.371.612.798.802 1.264v.005c.093.271.134.556.121.842a1.19 1.19 0 0 1-.463.936c-.276.229-.599.393-.947.481h-.006a3.203 3.203 0 0 0-.939.443c-.531.404-.994.999-1.485 1.633-.6.771-1.281 1.647-2.268 2.152a4.936 4.936 0 0 1-1.999.475c-.155.011-.312.017-.469.017h-.017a5.5 5.5 0 0 1-.729-.045 4.899 4.899 0 0 1-2.756-1.234C7.6 9.775 6.892 8.844 6.239 8.043c-.507-.615-1.076-1.196-1.61-1.585a3.234 3.234 0 0 0-.94-.446 3.44 3.44 0 0 1-.443-.174 2.898 2.898 0 0 0 3.219 3.972h.015a2.5 2.5 0 0 0 .461-.011l1.598 1.503A2.5 2.5 0 0 0 10.267 12h.003a2.5 2.5 0 0 0-.708.762L8.53 14.052a2.512 2.512 0 0 0-.462-.011h-.014a2.9 2.9 0 0 0-3.22 3.972c.146-.062.294-.12.443-.174.339-.099.657-.25.94-.446.534-.388 1.103-.97 1.61-1.585.653-.801 1.361-1.732 2.351-2.485a4.897 4.897 0 0 1 2.755-1.234c.243-.032.487-.048.732-.045h.014c.157 0 .314.006.469.017a4.94 4.94 0 0 1 2 .475c.987.505 1.667 1.381 2.267 2.152.491.634.955 1.229 1.485 1.633Z"/>
</svg>
