<svg width="141" height="30" viewBox="0 0 145 32" fill="none" xmlns="http://www.w3.org/2000/svg"><rect width="32" height="32" rx="6" fill="#FF1A26"></rect><path d="M6.0742 10.2104C6.01338 10.2464 5.97607 10.3118 5.97607 10.3825V18.7413C5.97607 18.812 6.01338 18.8774 6.0742 18.9134L13.1274 23.0883C13.1902 23.1255 13.2683 23.1255 13.3311 23.0883L20.3843 18.9134C20.4452 18.8774 20.4825 18.812 20.4825 18.7413V10.3825C20.4825 10.3118 20.4452 10.2464 20.3843 10.2104L13.3311 6.03553C13.2683 5.99835 13.1902 5.99835 13.1274 6.03554L6.0742 10.2104ZM19.6736 10.1987C19.8045 10.2762 19.8045 10.4655 19.6736 10.5429L13.3311 14.2975C13.2683 14.3347 13.1902 14.3347 13.1274 14.2975L6.78491 10.5429C6.65408 10.4655 6.65408 10.2762 6.78492 10.1987L13.1274 6.44453C13.1902 6.40735 13.2683 6.40735 13.3311 6.44453L19.6736 10.1987ZM6.32146 11.0283C6.32146 10.8734 6.49002 10.7773 6.62334 10.8562L12.9584 14.606C13.0193 14.642 13.0566 14.7074 13.0566 14.7781V22.2868C13.0566 22.4418 12.888 22.5379 12.7547 22.4589L6.41958 18.7088C6.35877 18.6728 6.32146 18.6073 6.32146 18.5367V11.0283ZM13.7038 22.4589C13.5705 22.5379 13.402 22.4418 13.402 22.2868V14.7781C13.402 14.7074 13.4393 14.642 13.5001 14.606L19.8352 10.8562C19.9685 10.7773 20.1371 10.8734 20.1371 11.0283V18.537C20.1371 18.6077 20.0998 18.6731 20.0389 18.7091L13.7038 22.4589Z" fill="#FF1A26"></path><path d="M20.0389 18.7091L19.8055 18.3147L20.0389 18.7091ZM19.8352 10.8562L20.0687 11.2506L19.8352 10.8562ZM13.5001 14.606L13.2666 14.2116L13.5001 14.606ZM13.7038 22.4589L13.9373 22.8534L13.7038 22.4589ZM6.41958 18.7088L6.18611 19.1032L6.41958 18.7088ZM12.7547 22.4589L12.5212 22.8533L12.7547 22.4589ZM12.9584 14.606L13.1919 14.2116L12.9584 14.606ZM6.62334 10.8562L6.8568 10.4618L6.62334 10.8562ZM13.1274 6.44453L12.8939 6.05012L13.1274 6.44453ZM13.3311 6.44453L13.5646 6.05012L13.3311 6.44453ZM6.78491 10.5429L6.55143 10.9374L6.78491 10.5429ZM6.78492 10.1987L7.01838 10.5931L6.78492 10.1987ZM13.3311 14.2975L13.0977 13.9031L13.3311 14.2975ZM13.1274 14.2975L12.8939 14.6919L13.1274 14.2975ZM19.6736 10.5429L19.4402 10.1485L19.6736 10.5429ZM13.3311 6.03553L13.0977 6.42995L13.3311 6.03553ZM13.1274 6.03554L12.8939 5.64112L13.1274 6.03554ZM20.3843 10.2104L20.1509 10.6048L20.3843 10.2104ZM20.3843 18.9134L20.6178 19.3079L20.3843 18.9134ZM13.1274 23.0883L13.3609 22.6939L13.1274 23.0883ZM13.3311 23.0883L13.0977 22.6939L13.3311 23.0883ZM6.0742 18.9134L6.30766 18.519L6.0742 18.9134ZM6.0742 10.2104L6.30766 10.6048L6.0742 10.2104ZM5.51774 10.3825V18.7413H6.43441V10.3825H5.51774ZM5.84074 19.3079L12.8939 23.4827L13.3609 22.6939L6.30766 18.519L5.84074 19.3079ZM13.5646 23.4827L20.6178 19.3079L20.1509 18.519L13.0977 22.6939L13.5646 23.4827ZM20.9408 18.7413V10.3825H20.0241V18.7413H20.9408ZM20.6178 9.81599L13.5646 5.64112L13.0977 6.42995L20.1509 10.6048L20.6178 9.81599ZM12.8939 5.64112L5.84074 9.81599L6.30766 10.6048L13.3609 6.42995L12.8939 5.64112ZM19.4402 10.1485L13.0977 13.9031L13.5646 14.6919L19.9071 10.9374L19.4402 10.1485ZM13.3609 13.9031L7.01838 10.1485L6.55143 10.9374L12.8939 14.6919L13.3609 13.9031ZM7.01838 10.5931L13.3609 6.83895L12.8939 6.05012L6.55145 9.80431L7.01838 10.5931ZM13.0977 6.83895L19.4402 10.5931L19.9071 9.80431L13.5646 6.05012L13.0977 6.83895ZM6.38988 11.2506L12.725 15.0004L13.1919 14.2116L6.8568 10.4618L6.38988 11.2506ZM12.5982 14.7781V22.2868H13.5149V14.7781H12.5982ZM12.9882 22.0645L6.65306 18.3144L6.18611 19.1032L12.5212 22.8533L12.9882 22.0645ZM6.7798 18.5367V11.0283H5.86313V18.5367H6.7798ZM13.8603 22.2868V14.7781H12.9436V22.2868H13.8603ZM13.7336 15.0004L20.0687 11.2506L19.6017 10.4618L13.2666 14.2116L13.7336 15.0004ZM19.6787 11.0283V18.537H20.5954V11.0283H19.6787ZM19.8055 18.3147L13.4704 22.0645L13.9373 22.8534L20.2724 19.1035L19.8055 18.3147ZM19.6787 18.537C19.6787 18.4457 19.7269 18.3612 19.8055 18.3147L20.2724 19.1035C20.4726 18.985 20.5954 18.7697 20.5954 18.537H19.6787ZM20.0687 11.2506C19.8965 11.3525 19.6787 11.2284 19.6787 11.0283H20.5954C20.5954 10.5183 20.0406 10.202 19.6017 10.4618L20.0687 11.2506ZM13.8603 14.7781C13.8603 14.8694 13.8121 14.9539 13.7336 15.0004L13.2666 14.2116C13.0664 14.3301 12.9436 14.5455 12.9436 14.7781H13.8603ZM12.9436 22.2868C12.9436 22.7968 13.4984 23.1131 13.9373 22.8534L13.4704 22.0645C13.6426 21.9626 13.8603 22.0867 13.8603 22.2868H12.9436ZM6.65306 18.3144C6.73162 18.3609 6.7798 18.4454 6.7798 18.5367H5.86313C5.86313 18.7693 5.98591 18.9847 6.18611 19.1032L6.65306 18.3144ZM12.5982 22.2868C12.5982 22.0867 12.816 21.9626 12.9882 22.0645L12.5212 22.8533C12.9601 23.1131 13.5149 22.7968 13.5149 22.2868H12.5982ZM12.725 15.0004C12.6464 14.9539 12.5982 14.8694 12.5982 14.7781H13.5149C13.5149 14.5455 13.3921 14.3301 13.1919 14.2116L12.725 15.0004ZM6.8568 10.4618C6.41795 10.202 5.86313 10.5183 5.86313 11.0283H6.7798C6.7798 11.2284 6.56208 11.3525 6.38988 11.2506L6.8568 10.4618ZM13.3609 6.83895C13.2797 6.88699 13.1788 6.88699 13.0977 6.83895L13.5646 6.05012C13.3578 5.92771 13.1007 5.92771 12.8939 6.05012L13.3609 6.83895ZM7.01838 10.1485C7.18737 10.2486 7.18737 10.4931 7.01838 10.5931L6.55145 9.80431C6.1208 10.0592 6.12079 10.6824 6.55143 10.9374L7.01838 10.1485ZM13.0977 13.9031C13.1788 13.855 13.2797 13.855 13.3609 13.9031L12.8939 14.6919C13.1007 14.8143 13.3578 14.8143 13.5646 14.6919L13.0977 13.9031ZM19.9071 10.9374C20.3377 10.6824 20.3377 10.0592 19.9071 9.80431L19.4402 10.5931C19.2712 10.4931 19.2712 10.2486 19.4402 10.1485L19.9071 10.9374ZM13.5646 5.64112C13.3578 5.51871 13.1007 5.51871 12.8939 5.64112L13.3609 6.42995C13.2797 6.47799 13.1788 6.47799 13.0977 6.42995L13.5646 5.64112ZM20.9408 10.3825C20.9408 10.1499 20.818 9.9345 20.6178 9.81599L20.1509 10.6048C20.0723 10.5583 20.0241 10.4738 20.0241 10.3825H20.9408ZM20.6178 19.3079C20.818 19.1894 20.9408 18.974 20.9408 18.7413H20.0241C20.0241 18.65 20.0723 18.5655 20.1509 18.519L20.6178 19.3079ZM12.8939 23.4827C13.1007 23.6051 13.3578 23.6051 13.5646 23.4827L13.0977 22.6939C13.1788 22.6459 13.2797 22.6459 13.3609 22.6939L12.8939 23.4827ZM5.51774 18.7413C5.51774 18.974 5.64053 19.1894 5.84074 19.3079L6.30766 18.519C6.38622 18.5655 6.43441 18.65 6.43441 18.7413H5.51774ZM6.43441 10.3825C6.43441 10.4738 6.38622 10.5583 6.30766 10.6048L5.84074 9.81599C5.64053 9.9345 5.51774 10.1499 5.51774 10.3825H6.43441Z" fill="white"></path><path d="M20.4259 13.2929L15.9427 16.235C15.892 16.2683 15.8591 16.3229 15.8534 16.3833L15.2904 22.2941C15.2831 22.3717 15.3214 22.4465 15.3888 22.4858L20.4349 25.4295C20.4971 25.4658 20.5741 25.4658 20.6364 25.4295L25.6825 22.4858C25.7499 22.4465 25.7882 22.3717 25.7808 22.2941L25.2179 16.3833C25.2122 16.3229 25.1793 16.2683 25.1286 16.235L20.6454 13.2929C20.5788 13.2491 20.4925 13.2491 20.4259 13.2929Z" fill="#FF1A26"></path><path d="M15.5039 16.2368C15.4445 16.2732 15.4082 16.3378 15.4082 16.4075V22.6709C15.4082 22.7405 15.4445 22.8052 15.5039 22.8415L20.6118 25.963C20.6758 26.0021 20.7563 26.0021 20.8204 25.963L25.9282 22.8415C25.9877 22.8052 26.0239 22.7405 26.0239 22.6709V16.4075C26.0239 16.3378 25.9877 16.2732 25.9282 16.2368L20.8204 13.1154C20.7563 13.0762 20.6758 13.0762 20.6118 13.1154L15.5039 16.2368ZM25.3656 16.202C25.4932 16.28 25.4932 16.4653 25.3656 16.5433L20.8204 19.3212C20.7563 19.3603 20.6758 19.3603 20.6118 19.3212L16.0666 16.5433C15.939 16.4653 15.939 16.28 16.0666 16.202L20.6118 13.4244C20.6758 13.3852 20.7563 13.3852 20.8204 13.4244L25.3656 16.202ZM15.661 16.961C15.661 16.8048 15.832 16.7089 15.9652 16.7903L20.494 19.5579C20.5534 19.5942 20.5897 19.6589 20.5897 19.7285V25.2841C20.5897 25.4402 20.4187 25.5362 20.2854 25.4547L15.7567 22.6869C15.6972 22.6506 15.661 22.5859 15.661 22.5162V16.961ZM21.1467 25.4547C21.0135 25.5362 20.8425 25.4403 20.8425 25.2841V19.7285C20.8425 19.6589 20.8787 19.5942 20.9382 19.5579L25.4669 16.7903C25.6002 16.7089 25.7712 16.8048 25.7712 16.961V22.5165C25.7712 22.5862 25.7349 22.6508 25.6755 22.6872L21.1467 25.4547Z" fill="#FF1A26"></path><path d="M25.6755 22.6872L25.4365 22.2961L25.6755 22.6872ZM25.4669 16.7903L25.7059 17.1814L25.4669 16.7903ZM20.9382 19.5579L21.1772 19.949L20.9382 19.5579ZM21.1467 25.4547L21.3857 25.8458L21.1467 25.4547ZM15.7567 22.6869L15.9957 22.2958L15.7567 22.6869ZM20.2854 25.4547L20.0464 25.8458L20.2854 25.4547ZM20.494 19.5579L20.255 19.949L20.494 19.5579ZM20.6118 13.4244L20.8508 13.8155L20.6118 13.4244ZM20.8204 13.4244L20.5814 13.8155L20.8204 13.4244ZM16.0666 16.5433L15.8276 16.9344L16.0666 16.5433ZM20.8204 19.3212L21.0594 19.7123L20.8204 19.3212ZM20.6118 19.3212L20.8508 18.9301L20.6118 19.3212ZM25.3656 16.5433L25.6046 16.9344L25.3656 16.5433ZM25.3656 16.202L25.1266 16.5931L25.3656 16.202ZM20.6118 13.1154L20.3728 12.7243L20.6118 13.1154ZM25.9282 16.2368L26.1672 15.8458L25.9282 16.2368ZM25.9282 22.8415L26.1672 23.2326L25.9282 22.8415ZM20.6118 25.963L20.3728 26.3541L20.6118 25.963ZM20.8204 25.963L21.0594 26.3541L20.8204 25.963ZM15.5039 22.8415L15.2649 23.2326L15.5039 22.8415ZM15.5039 16.2368L15.2649 15.8458L15.5039 16.2368ZM14.9499 16.4075V22.6709H15.8665V16.4075H14.9499ZM15.2649 23.2326L20.3728 26.3541L20.8508 25.5719L15.7429 22.4504L15.2649 23.2326ZM21.0594 26.3541L26.1672 23.2326L25.6892 22.4504L20.5814 25.5719L21.0594 26.3541ZM26.4823 22.6709V16.4075H25.5656V22.6709H26.4823ZM26.1672 15.8458L21.0594 12.7243L20.5814 13.5064L25.6892 16.6279L26.1672 15.8458ZM20.3728 12.7243L15.2649 15.8458L15.7429 16.6279L20.8508 13.5064L20.3728 12.7243ZM25.1266 16.1522L20.5814 18.9301L21.0594 19.7123L25.6046 16.9344L25.1266 16.1522ZM20.8508 18.9301L16.3056 16.1522L15.8276 16.9344L20.3728 19.7123L20.8508 18.9301ZM16.3056 16.5931L20.8508 13.8155L20.3728 13.0333L15.8276 15.8109L16.3056 16.5931ZM20.5814 13.8155L25.1266 16.5931L25.6046 15.8109L21.0594 13.0333L20.5814 13.8155ZM15.7263 17.1814L20.255 19.949L20.733 19.1668L16.2042 16.3992L15.7263 17.1814ZM20.1314 19.7285V25.2841H21.048V19.7285H20.1314ZM20.5244 25.0636L15.9957 22.2958L15.5176 23.078L20.0464 25.8458L20.5244 25.0636ZM16.1193 22.5162V16.961H15.2026V22.5162H16.1193ZM21.3008 25.2841V19.7285H20.3841V25.2841H21.3008ZM21.1772 19.949L25.7059 17.1814L25.2279 16.3992L20.6992 19.1668L21.1772 19.949ZM25.3129 16.961V22.5165H26.2295V16.961H25.3129ZM25.4365 22.2961L20.9077 25.0636L21.3857 25.8458L25.9145 23.0782L25.4365 22.2961ZM25.3129 22.5165C25.3129 22.4265 25.3597 22.343 25.4365 22.2961L25.9145 23.0782C26.1102 22.9586 26.2295 22.7458 26.2295 22.5165H25.3129ZM25.7059 17.1814C25.5338 17.2866 25.3129 17.1627 25.3129 16.961H26.2295C26.2295 16.4469 25.6666 16.1311 25.2279 16.3992L25.7059 17.1814ZM21.3008 19.7285C21.3008 19.8185 21.254 19.902 21.1772 19.949L20.6992 19.1668C20.5035 19.2864 20.3841 19.4992 20.3841 19.7285H21.3008ZM20.3841 25.2841C20.3841 25.7982 20.9471 26.1139 21.3857 25.8458L20.9077 25.0636C21.0799 24.9584 21.3008 25.0823 21.3008 25.2841H20.3841ZM15.9957 22.2958C16.0725 22.3427 16.1193 22.4262 16.1193 22.5162H15.2026C15.2026 22.7456 15.322 22.9584 15.5176 23.078L15.9957 22.2958ZM20.1314 25.2841C20.1314 25.0823 20.3523 24.9584 20.5244 25.0636L20.0464 25.8458C20.4851 26.1139 21.048 25.7982 21.048 25.2841H20.1314ZM20.255 19.949C20.1782 19.902 20.1314 19.8185 20.1314 19.7285H21.048C21.048 19.4992 20.9287 19.2864 20.733 19.1668L20.255 19.949ZM16.2042 16.3992C15.7656 16.1311 15.2026 16.4468 15.2026 16.961H16.1193C16.1193 17.1627 15.8984 17.2866 15.7263 17.1814L16.2042 16.3992ZM20.8508 13.8155C20.7681 13.866 20.6641 13.866 20.5814 13.8155L21.0594 13.0333C20.8486 12.9045 20.5835 12.9045 20.3728 13.0333L20.8508 13.8155ZM16.3056 16.1522C16.4704 16.253 16.4704 16.4924 16.3056 16.5931L15.8276 15.8109C15.4075 16.0676 15.4075 16.6777 15.8276 16.9344L16.3056 16.1522ZM20.5814 18.9301C20.6641 18.8796 20.7681 18.8796 20.8508 18.9301L20.3728 19.7123C20.5835 19.8411 20.8486 19.8411 21.0594 19.7123L20.5814 18.9301ZM25.6046 16.9344C26.0246 16.6777 26.0246 16.0676 25.6046 15.8109L25.1266 16.5931C24.9617 16.4924 24.9617 16.253 25.1266 16.1522L25.6046 16.9344ZM21.0594 12.7243C20.8486 12.5955 20.5835 12.5955 20.3728 12.7243L20.8508 13.5064C20.7681 13.557 20.6641 13.557 20.5814 13.5064L21.0594 12.7243ZM26.4823 16.4075C26.4823 16.1782 26.3629 15.9654 26.1672 15.8458L25.6892 16.6279C25.6124 16.581 25.5656 16.4975 25.5656 16.4075H26.4823ZM26.1672 23.2326C26.3629 23.113 26.4823 22.9002 26.4823 22.6709H25.5656C25.5656 22.5809 25.6124 22.4974 25.6892 22.4504L26.1672 23.2326ZM20.3728 26.3541C20.5835 26.4829 20.8486 26.4829 21.0594 26.3541L20.5814 25.5719C20.6641 25.5214 20.7681 25.5214 20.8508 25.5719L20.3728 26.3541ZM14.9499 22.6709C14.9499 22.9002 15.0692 23.113 15.2649 23.2326L15.7429 22.4504C15.8197 22.4974 15.8665 22.5809 15.8665 22.6709H14.9499ZM15.8665 16.4075C15.8665 16.4975 15.8197 16.581 15.7429 16.6279L15.2649 15.8458C15.0692 15.9654 14.9499 16.1782 14.9499 16.4075H15.8665Z" fill="white"></path><g clip-path="url(#clip0_1597_4240)"><path d="M57 11.7259C57 15.6698 54.2505 18.0355 49.5862 18.0355H45.15V25.5H42V5.5H49.5862C54.2537 5.5 57 7.8378 57 11.7259ZM49.4984 15.2186C52.3037 15.2186 53.7351 14.0358 53.7351 11.7259C53.7351 9.41598 52.3037 8.31839 49.4984 8.31839H45.1468V15.2186H49.4984Z" fill="#FF1A26"></path><path d="M75.4833 26.5C71.1467 26.5 68 23.3386 68 18.9853C68 14.6321 71.1467 11.5 75.4833 11.5C79.82 11.5 83 14.6484 83 18.9853C83 23.3223 79.84 26.5 75.4833 26.5ZM75.4833 14.1429C72.4333 14.1429 71.045 16.6538 71.045 18.9853C71.045 22.3522 73.345 23.888 75.4833 23.888C78.5333 23.888 79.9217 21.3462 79.9217 18.9853C79.9217 15.6413 77.6933 14.1429 75.4833 14.1429Z" fill="#FF1A26"></path><path d="M91.3569 26.4984C87.0587 26.4984 85.2618 24.0052 85 21.8316L87.919 21.825C88.1574 23.0023 89.1595 24.2465 91.3257 24.2465C93.1351 24.2465 93.9423 23.2763 93.9423 22.3142C93.9423 21.7631 93.6758 20.788 91.8945 20.4472L89.5834 19.9678C87.0805 19.4525 85.5844 17.9507 85.5844 15.9548C85.5844 13.4975 88.0436 11.5 91.067 11.5C92.9184 11.5 94.3896 11.981 95.4447 12.9284C96.3314 13.729 96.8893 14.9455 97 15.857L94.1699 15.8472C93.894 14.7743 92.9605 13.7242 91.067 13.7242C89.6535 13.7242 88.5455 14.5737 88.5455 15.6564C88.5455 16.5467 89.2327 17.2283 90.3377 17.4338L92.7158 17.8838C95.4353 18.435 96.9969 19.9645 96.9969 22.0745C96.9969 24.1845 95.0582 26.5 91.3553 26.5H91.3569V26.4984Z" fill="#FF1A26"></path><path d="M99 30.4984V11.8257H101.803V14.4631L102.266 13.6489C103.009 12.343 104.718 11.5 106.617 11.5C110.493 11.5 113 14.3466 113 18.7545C113 23.1625 110.327 26.0697 106.501 26.0697C104.368 26.0697 102.957 25.1054 102.346 24.2002L101.892 23.5265V30.4952H99V30.5V30.4984ZM105.97 14.0464C103.55 14.0464 101.862 15.983 101.862 18.7561C101.862 21.5292 103.552 23.5265 105.97 23.5265C108.388 23.5265 110.078 21.6107 110.078 18.7561C110.078 15.9016 108.426 14.0464 105.97 14.0464Z" fill="#FF1A26"></path><path d="M121.827 26.5C119.994 26.5 118.298 25.794 117.057 24.5141C115.712 23.1283 115 21.1962 115 18.925C115 16.825 115.704 14.9109 116.986 13.5315C118.182 12.2402 119.822 11.5 121.486 11.5C125.566 11.5 128 14.2424 128 18.8353C128 19.1989 127.977 19.5103 127.957 19.6913H117.806L117.815 19.9554C117.905 22.2658 119.629 24.0071 121.828 24.0071C123.597 24.0071 124.704 23.1478 125.301 21.519L127.777 21.5255C127.155 24.4391 125.185 26.5 121.828 26.5H121.827ZM121.514 13.9033C119.332 13.9033 118.022 15.6935 117.899 17.3761L117.879 17.65H125.166L125.157 17.3891C125.104 15.7832 124.119 13.9065 121.514 13.9065V13.9033Z" fill="#FF1A26"></path><path d="M137.484 26.5C133.147 26.5 130 23.3386 130 18.9853C130 14.6321 133.147 11.5 137.484 11.5C141.82 11.5 145 14.6484 145 18.9853C145 23.3223 141.84 26.5 137.484 26.5ZM137.484 14.1429C134.432 14.1429 133.046 16.6538 133.046 18.9853C133.046 22.3522 135.346 23.888 137.484 23.888C140.535 23.888 141.923 21.3462 141.923 18.9853C141.923 15.6413 139.694 14.1429 137.484 14.1429Z" fill="#FF1A26"></path><path d="M68 11.5V14.3509H62.25V25.5H59V11.5H68Z" fill="#FF1A26"></path></g><defs><clipPath id="clip0_1597_4240"><rect width="103" height="29" fill="white" transform="translate(42 1.5)"></rect></clipPath></defs></svg>
