<svg width="80" height="40" viewBox="0 0 151 40" fill="none" xmlns="http://www.w3.org/2000/svg"><path d="M11.5483 29.9995C11.5483 35.5222 19.8031 39.9995 26.1809 39.9995C29.574 39.9995 32.6254 38.7323 34.7384 36.7144L26.1809 29.9995H11.5483Z" fill="currentColor"></path><path d="M0 29.9996C0 35.5222 5.17047 39.9995 11.5483 39.9995V19.9998C5.17047 19.9998 0 24.4768 0 29.9996Z" fill="currentColor"></path><path d="M26.1808 9.99989V27.5075H37.7292V10.0249C37.7173 4.46985 32.552 -0.0135841 26.1808 2.98331e-05H11.4362V0.00114226C5.11012 0.0536532 0 4.50986 0 9.99989V19.9998H11.5483V9.99989H26.1808" fill="currentColor"></path><path d="M28.1898 29.3275L40.7827 38.9295V29.3275H28.1898Z" fill="currentColor"></path><path d="M88.7938 25.1089H88.7527C87.927 29.0309 85.4089 30.806 82.0238 30.806C77.0289 30.806 75.2949 27.5033 75.2949 23.3752V11.0324H78.8865V22.4671C78.8865 25.1089 80.0423 27.5033 83.5102 27.5033C86.8123 27.5033 88.7938 25.6872 88.7938 22.4671V11.0324H92.3854V30.3106H88.7938V25.1089Z" fill="currentColor"></path><path d="M107.351 23.1277V22.2193H101.613C99.1774 22.2193 97.8563 23.1277 97.8563 24.82C97.8563 26.3063 98.8062 27.7095 101.613 27.7095C105.163 27.7095 107.351 25.7697 107.351 23.1277ZM107.351 25.3982H107.31C106.443 28.948 103.842 30.7235 100.499 30.7235C96.7419 30.7235 94.3067 28.907 94.3067 25.2742C94.3067 21.8892 96.4529 19.371 101.118 19.371H107.351V18.3389C107.351 15.3254 106.196 13.6742 103.14 13.6742C100.375 13.6742 98.8473 14.9538 98.3108 18.1324L94.8843 17.6371C95.5447 13.1375 98.1869 10.6193 103.264 10.6193C108.631 10.6193 110.943 13.3438 110.943 18.2976V30.3106H107.351V25.3982" fill="currentColor"></path><path d="M112.909 30.3106V11.0324H116.5V16.9767H116.583C117.367 12.477 119.184 11.0324 122.28 11.0324H123.477V14.995H121.743C118.111 14.995 116.5 16.3988 116.5 20.1141V30.3106H112.909" fill="currentColor"></path><path d="M128.24 14.1166L125.391 15.0444V11.0205H128.24V5.69549H131.832V11.0205H137.982V15.0146L131.832 14.1166V24.0654C131.832 26.2122 132.657 27.3266 134.804 27.3266C135.836 27.3266 136.703 27.1203 137.735 26.8313L138.189 30.1339C136.868 30.5465 135.836 30.7944 134.06 30.7944C130.015 30.7944 128.24 28.1524 128.24 24.5609V14.1166" fill="currentColor"></path><path d="M140.129 30.3106V11.0324H143.72V16.9767H143.803C144.587 12.477 146.403 11.0324 149.499 11.0324H150.697V14.995H148.963C145.33 14.995 143.72 16.3988 143.72 20.1141V30.3106H140.129" fill="currentColor"></path><path d="M70.4206 19.1212C70.4206 14.0209 66.7718 10.045 61.8913 10.045C57.0108 10.045 53.0603 14.0209 53.0603 19.1212C53.0603 24.5028 56.9397 27.7175 61.8913 27.7175C66.8429 27.7175 70.4206 24.5028 70.4206 19.1212V19.1212ZM49.7827 19.1615C49.7827 11.9726 55.2655 6.67151 61.8913 6.67151C68.553 6.67151 73.6979 11.9726 73.6979 19.1615C73.6979 23.4184 71.6333 26.3923 68.9972 28.6411L72.0609 34.2237V34.304H68.4629L66.3614 30.2878C65.1145 30.7696 63.423 31.051 61.8913 31.051C55.1227 31.051 49.7827 26.3098 49.7827 19.1615" fill="currentColor"></path></svg>
