<svg width="211" height="43" viewBox="0 0 211 43" fill="none" xmlns="http://www.w3.org/2000/svg">
<path d="M34.6015 3.07422C31.9091 3.07422 29.7266 5.25833 29.7266 7.95258C29.7266 10.6468 31.9091 12.8309 34.6015 12.8309C37.2938 12.8309 39.4764 10.6468 39.4764 7.95258C39.4764 5.25833 37.2938 3.07422 34.6015 3.07422Z" fill="#008BFF"/>
<path d="M0.00709869 21.2886C0.0070984 24.6474 2.58294 27.3954 5.86838 27.6795C3.74668 30.2002 3.86731 33.971 6.23737 36.3427C8.60743 38.7143 12.3754 38.8351 14.8945 36.7119C15.1712 39.9996 17.9245 42.5773 21.2809 42.5773C24.6372 42.5773 27.3834 39.9996 27.6672 36.7119C30.1863 38.8351 33.9543 38.7143 36.3243 36.3427C38.6944 33.971 38.8149 30.2002 36.6932 27.6795C39.9788 27.4025 42.5546 24.6474 42.5546 21.2886C42.5546 17.7453 39.6808 14.8694 36.1399 14.8694C35.8914 14.8694 35.6503 14.8907 35.409 14.9191C35.1464 14.9475 34.8767 14.9546 34.6001 14.9546C33.6846 14.9546 32.8119 14.7771 32.017 14.4575C30.2288 13.7474 28.8097 12.3201 28.1001 10.5378C27.7807 9.73539 27.6034 8.86197 27.6034 7.95306C27.6034 7.67613 27.6105 7.41339 27.6389 7.14356C27.6672 6.90212 27.6885 6.66069 27.6885 6.41926C27.6885 2.87588 24.8147 3.09785e-07 21.2738 0C17.9174 -2.93623e-07 15.1712 2.57764 14.8874 5.86537C12.3683 3.7422 8.60034 3.86291 6.23028 6.23462C3.86021 8.60633 3.73959 12.3769 5.86129 14.8978C2.57584 15.1747 2.93414e-07 17.9298 0 21.2886H0.00709869Z" fill="#008BFF"/>
<path d="M53.1934 25.7738L57.5105 25.8485C57.7338 28.9133 60.1156 30.9689 63.7629 30.9689C66.8518 30.9689 69.0849 29.586 69.0849 27.0818C69.0849 24.3162 66.3679 23.7182 62.2369 22.9706C57.9199 22.2232 53.826 20.8403 53.826 15.6452C53.826 11.0855 57.5478 7.9834 63.093 7.9834C69.0476 7.9834 72.7692 11.235 72.9554 16.0563H68.6754C68.3405 13.4027 66.2564 11.6087 63.093 11.6087C60.1528 11.6087 58.1059 12.8795 58.1059 15.3462C58.1059 18.0371 60.7855 18.5977 64.8794 19.3079C69.1964 20.0927 73.4018 21.4756 73.3648 26.6333C73.3648 31.3425 69.457 34.5942 63.7256 34.5942C57.2499 34.5942 53.3423 31.0062 53.1934 25.7738Z" fill="#282943"/>
<path d="M85.7663 34.5941C79.7746 34.5941 76.0156 30.7072 76.0156 24.8393C76.0156 18.9342 79.7746 15.0098 85.3943 15.0098C90.9023 15.0098 94.5866 18.523 94.6983 24.1292C94.6983 24.6151 94.6611 25.1382 94.5866 25.6616H80.2211V25.9233C80.3328 29.1747 82.3797 31.3052 85.5431 31.3052C87.9994 31.3052 89.7858 30.0717 90.3439 27.9414H94.3634C93.6935 31.7162 90.4929 34.5941 85.7663 34.5941ZM80.37 22.709H90.5301C90.1952 19.8684 88.2228 18.2613 85.4314 18.2613C82.8636 18.2613 80.6677 19.9805 80.37 22.709Z" fill="#282943"/>
<path d="M107.998 15.0098C112.203 15.0098 115.664 17.327 115.664 23.7181V34.3699H111.608V24.0545C111.608 20.429 110.082 18.4855 107.067 18.4855C103.867 18.4855 101.969 20.8402 101.969 24.7272V34.3699H97.9492V15.234H101.448L101.894 17.7381C103.085 16.2431 104.909 15.0098 107.998 15.0098Z" fill="#282943"/>
<path d="M133.649 17.8872V8.20703H137.668V34.3693H134.17L133.686 31.4915C132.458 33.1733 130.486 34.5936 127.471 34.5936C122.298 34.5936 118.465 30.9309 118.465 24.8013C118.465 18.8962 122.298 15.0092 127.471 15.0092C130.374 15.0092 132.421 16.2052 133.649 17.8872ZM128.141 31.1925C131.491 31.1925 133.686 28.5762 133.686 24.8762C133.686 21.0639 131.491 18.4478 128.141 18.4478C124.792 18.4478 122.596 21.0639 122.596 24.8013C122.596 28.5762 124.792 31.1925 128.141 31.1925Z" fill="#282943"/>
<path d="M151.795 15.0092C157.005 15.0092 160.801 18.6346 160.801 24.8013C160.801 30.6692 157.005 34.5936 151.795 34.5936C148.818 34.5936 146.771 33.3228 145.58 31.6036L145.096 34.3693H141.598V8.20703H145.617V18.074C146.882 16.3547 148.855 15.0092 151.795 15.0092ZM151.125 31.1925C154.475 31.1925 156.708 28.5762 156.708 24.8013C156.708 21.0639 154.475 18.4478 151.125 18.4478C147.776 18.4478 145.58 21.0639 145.58 24.7641C145.58 28.5389 147.776 31.1925 151.125 31.1925Z" fill="#282943"/>
<path d="M164.021 34.3693V8.20703H168.041V34.3693H164.021Z" fill="#282943"/>
<path d="M185.044 24.8022V15.2344H189.063V34.3702H185.528L185.081 31.9408C183.891 33.3984 182.141 34.5945 179.201 34.5945C175.145 34.5945 171.684 32.4268 171.684 25.8862V15.2344H175.703V25.4377C175.703 29.1751 177.192 31.0813 180.132 31.0813C183.184 31.0813 185.044 28.764 185.044 24.8022Z" fill="#282943"/>
<path d="M202.069 34.5941C196.075 34.5941 192.316 30.7072 192.316 24.8393C192.316 18.9342 196.075 15.0098 201.696 15.0098C207.203 15.0098 210.888 18.523 211 24.1292C211 24.6151 210.962 25.1382 210.888 25.6616H196.522V25.9233C196.634 29.1747 198.682 31.3052 201.845 31.3052C204.301 31.3052 206.086 30.0717 206.645 27.9414H210.665C209.994 31.7162 206.794 34.5941 202.069 34.5941ZM196.671 22.709H206.831C206.496 19.8684 204.524 18.2613 201.733 18.2613C199.164 18.2613 196.969 19.9805 196.671 22.709Z" fill="#282943"/>
</svg>
