<svg xmlns="http://www.w3.org/2000/svg" viewBox="0 0 50 50" fill="none"><path fill-rule="evenodd" d="M29.57 16.22a10.84 10.84 0 0 0-4.698-1.064c-6.01 0-10.88 4.872-10.88 10.88s4.872 10.88 10.88 10.88c4.09 0 7.655-2.258 9.513-5.596l-2.623-1.457a7.88 7.88 0 0 1-6.89 4.053c-4.353 0-7.88-3.528-7.88-7.88s3.528-7.88 7.88-7.88a7.85 7.85 0 0 1 3.403.77l1.295-2.707zm5.21-14.235v25.762h-3.11V.9C29.546.313 27.3 0 25 0 11.193 0 0 11.193 0 25s11.193 25 25 25 25-11.193 25-25c0-10.337-6.274-19.21-15.222-23.016z" fill="#0aba9f"/></svg>
