<svg xmlns="http://www.w3.org/2000/svg" viewBox="0 0 24 24">
  <path fill="#4B53BC" d="M20.625 8.127H15.75V5.628a3.126 3.126 0 013.126-3.126h.626a3.126 3.126 0 013.126 3.126v.626c0 1.036-.842 1.873-1.878 1.873zM17.75 22H9.5c-.827 0-1.5-.671-1.5-1.5V9.75c0-.827.673-1.5 1.5-1.5h9.5c.827 0 1.5.673 1.5 1.5V19.5c0 1.376-1.121 2.5-2.5 2.5h.75zM3.25 7.5A2.75 2.75 0 116 4.75 2.755 2.755 0 013.25 7.5zM7.5 9.75V19.5c0 1.379-1.121 2.5-2.5 2.5H3.5a2.5 2.5 0 01-2.5-2.5v-9.75c0-.827.673-1.5 1.5-1.5H6c.827 0 1.5.673 1.5 1.5z"/>
  <path fill="#fff" d="M15 12.375h-1.5V17.25h-1.125v-4.875H10.875V11.25H15z"/>
</svg>
