<svg id="Layer_1" xmlns="http://www.w3.org/2000/svg" version="1.1" viewBox="0 0 78 20">
  <!-- Generator: Adobe Illustrator 29.6.1, SVG Export Plug-In . SVG Version: 2.1.1 Build 9)  -->
  <defs>
    <style>
      .st0 {
        fill-rule: evenodd;
      }

      .st0, .st1 {
        fill: #09c285;
      }
    </style>
  </defs>
  <path class="st1" d="M40.1,0h-4.1v20h4.1V0Z"/>
  <path class="st1" d="M.4,0h4.3v9L12.8,0h5.2l-7.4,8.2,7.9,11.8h-5.2l-5.8-8.4-2.9,3.2v5.3H.4V0Z"/>
  <path class="st0" d="M34.5,19.8h-2.1c-1.9,0-2.8-.8-2.7-2.4-.5.8-1.2,1.5-2,1.9-.8.4-1.7.7-2.9.7-1.6,0-3-.4-4-1.1-1-.8-1.5-1.8-1.5-3.2s.6-2.8,1.7-3.6c1.2-.9,2.9-1.3,5.1-1.3h2.9v-.7c0-.7-.3-1.2-.8-1.6-.5-.4-1.2-.6-2-.6s-1.4.2-1.8.5c-.5.3-.8.8-.9,1.3h-3.9c.1-1.5.8-2.7,2-3.5,1.2-.8,2.8-1.3,4.8-1.3s3.7.5,4.8,1.4c1.1.9,1.7,2.2,1.7,4v5.2c0,.4,0,.6.2.7.1.1.4.2.7.2h.4v3.4ZM26.1,13.5c-.8,0-1.5.2-2,.5-.5.3-.7.8-.7,1.4s.2.9.6,1.2c.4.3.9.5,1.6.5,1.1,0,1.9-.3,2.5-.9.6-.6.9-1.4,1-2.4v-.3h-3Z"/>
  <path class="st1" d="M45.5,14.9c0,.6.4,1.2,1,1.6.6.4,1.3.6,2.2.6s1.5-.1,2-.4c.5-.3.8-.7.8-1.2s-.1-.7-.4-.9c-.2-.2-.6-.3-1-.4-.4-.1-1.1-.2-2.1-.3-1.3-.2-2.4-.4-3.3-.7-.9-.3-1.6-.7-2.1-1.3-.5-.6-.8-1.3-.8-2.3s.3-1.8.8-2.5c.5-.7,1.3-1.3,2.3-1.7,1-.4,2.1-.6,3.3-.6,2,0,3.6.5,4.9,1.3,1.3.8,1.9,2,2,3.5h-3.9c0-.6-.4-1-.9-1.3-.5-.4-1.2-.5-2-.5s-1.4.1-1.9.4c-.5.3-.7.7-.7,1.1s.1.6.4.8c.3.2.6.3,1,.4.4,0,1.1.2,2,.2,2,.2,3.5.7,4.6,1.3,1.1.6,1.6,1.7,1.6,3.2s-.3,1.8-.9,2.5c-.6.7-1.3,1.3-2.4,1.7-1,.4-2.2.6-3.5.6-2,0-3.7-.5-5-1.3-1.3-.9-2-2.2-2-3.7h3.8Z"/>
  <path class="st1" d="M69.8,6.7c-1.1-1.1-2.5-1.6-4.3-1.6s-3.3.7-4.4,2V0h-4.1v20h4.1v-7.5c0-1.3.3-2.2.9-2.9.6-.7,1.4-1.1,2.4-1.1s1.8.3,2.3,1c.5.6.8,1.5.8,2.8v7.8h4.1v-8c0-2.5-.6-4.2-1.7-5.3Z"/>
  <path class="st1" d="M73,5.3h4.1v14.7h-4.1V5.3Z"/>
  <path class="st1" d="M76.5.6c-.4-.4-.9-.6-1.4-.6s-1.1.2-1.5.6c-.4.4-.6.8-.6,1.4s.2,1,.6,1.4c.4.4.9.6,1.5.6s1.1-.2,1.4-.6c.4-.4.6-.9.6-1.4s-.2-1-.6-1.4Z"/>
</svg>
