<svg width="672" height="220" viewBox="0 0 672 220" fill="none" xmlns="http://www.w3.org/2000/svg">
<path fill-rule="evenodd" clip-rule="evenodd" d="M408.052 79.2076C419.458 79.429 429.375 83.0778 436.511 89.9564C443.883 97.0623 448.203 107.534 448.203 120.995C448.203 123.301 448.049 126.365 447.742 129.275L447.697 129.703L447.663 130.014H386.775C388.332 138.904 396.293 145.514 409.072 145.514C417.094 145.513 423.556 142.848 427.938 138.328L428.255 138L428.489 137.759L428.739 137.984L443.233 150.989L442.66 151.605C434.09 160.782 420.912 164.614 408.007 164.614C395.356 164.614 384.464 160.376 376.73 152.966C368.993 145.552 364.467 135.011 364.467 122.512C364.467 97.4798 383.071 79.1969 406.943 79.1967L408.052 79.2076ZM406.639 98.297C401.238 98.297 396.824 99.7362 393.535 102.262C390.493 104.599 388.367 107.903 387.313 111.976H426.009C425.082 107.633 422.953 104.32 419.87 102.044C416.551 99.5951 412.061 98.297 406.639 98.297Z" fill="black"/>
<path d="M553.758 79.1967C571.073 79.1968 585.07 88.008 591.297 101.84L591.626 102.57L591.32 102.719L571.603 112.243L571.272 112.402L571.131 112.063L570.936 111.603C567.877 104.333 561.497 100.118 553.15 100.118C547.046 100.118 542.068 102.278 538.612 106.035C535.149 109.8 533.148 115.241 533.148 121.906C533.148 128.571 535.149 134.011 538.612 137.775C542.068 141.533 547.046 143.692 553.15 143.692C561.015 143.692 567.596 139.193 571.272 132.292L571.487 131.888L571.645 131.592L590.45 140.741L590.872 140.948L591.183 141.099L591.034 141.409L590.834 141.834C584.302 155.652 570.011 164.614 552.694 164.614C540.499 164.614 529.945 160.527 522.437 153.207C514.927 145.884 510.523 135.38 510.523 122.663C510.523 97.1624 529.292 79.1969 553.758 79.1967Z" fill="black"/>
<path d="M300.258 96.3749L340.651 55.4652L340.792 55.3235L340.894 55.22H368.311L326.643 96.8149L371.153 162.551L371.521 163.096H344.295L344.192 162.941L344.05 162.731L310.256 112.427L300.258 122.548V163.096H279V55.22H300.258V96.3749Z" fill="black"/>
<path d="M478.836 80.7155H507.263V101.181H478.836V129.189C478.836 133.661 480.119 137.071 482.414 139.362C484.71 141.653 488.125 142.934 492.606 142.934H507.263V163.096H491.086C480.302 163.096 471.855 160.171 466.107 154.433C460.358 148.694 457.427 140.26 457.427 129.493V55.22H478.836V80.7155Z" fill="black"/>
<path d="M619.188 84.7039C624.743 81.1898 631.58 79.1968 639.19 79.1967C649.191 79.1968 657.253 82.6094 662.809 88.7046C668.357 94.7905 671.328 103.466 671.328 113.862V163.096H649.918V117.352C649.918 111.704 648.578 107.402 646.177 104.526C643.795 101.672 640.281 100.118 635.693 100.118C630.386 100.118 626.29 101.696 623.518 104.57C620.742 107.448 619.188 111.734 619.188 117.352V163.096H598.082V55.22H619.188V84.7039Z" fill="black"/>
<rect width="220" height="220" fill="#851BFF"/>
<path d="M127.559 58.9681L151.429 35H92.9374L29.9126 98.2643L92.4407 161.032L68.5702 185H127.062L190.087 121.736L127.559 58.9681ZM125.625 127.714L94.3744 159.089V92.2768L125.625 60.9107V127.723V127.714Z" fill="white"/>
</svg>
