<svg preserveAspectRatio="none" width="100%" height="100%" overflow="visible" style="display: block;" viewBox="0 0 164 36" fill="none" xmlns="http://www.w3.org/2000/svg">
<g id="Stagehand-logo-color 1">
<path id="Vector" d="M29.6386 6.84H3.59255V31.32H29.6386V6.84Z" fill="var(--fill-0, white)"/>
<path id="Vector_2" fill-rule="evenodd" clip-rule="evenodd" d="M35.9255 36H0V0H35.9255V36ZM10.2407 12.1584V17.7724L12.7523 20.16H20.4767V21.42H10.2407V26.6301H23.1403L26.4058 23.5112V17.8973L23.531 15.12H16.1696V13.86H26.4058V9.41396L13.0035 9.41378L10.2407 12.1584Z" fill="var(--fill-0, #00C851)"/>
<path id="Vector_3" d="M45.6254 20.8474H48.0335V21.7814C48.0335 22.8789 48.9728 23.7911 50.1042 23.7911H51.718C52.9456 23.7911 53.8143 23.0443 53.8143 22.0158C53.8143 18.7924 45.8667 18.0911 45.8667 13.6538C45.8667 11.3643 47.7215 9.77623 50.3455 9.77623H51.477C53.9574 9.77623 55.9811 11.715 55.9811 14.1208V14.8222H53.573V14.1208C53.573 12.9997 52.6338 12.1111 51.477 12.1111H50.3455C49.0453 12.1111 48.2746 12.6944 48.2746 13.652C48.2746 16.1286 56.2222 17.0862 56.2222 22.014C56.2222 24.3508 54.2712 26.1261 51.718 26.1261H50.1042C47.6236 26.1261 45.6254 24.1871 45.6254 21.7814V20.8474Z" fill="var(--fill-0, black)"/>
<path id="Vector_4" d="M68.0142 16.5484H63.5589V21.9213C63.5589 22.9734 64.4021 23.7911 65.4865 23.7911H68.016V26.1279H65.4865C63.0784 26.1279 61.1508 24.2581 61.1508 21.9231V16.5502H57.4172V14.2134H61.1508V11.1772H63.5589V14.2134H68.0142V16.5502V16.5484Z" fill="var(--fill-0, black)"/>
<path id="Vector_5" d="M77.9999 14.2116H80.4078V26.1259H77.9999V24.8177L76.0015 26.1259H74.1483C71.7639 26.1259 69.8128 24.2345 69.8128 21.9213V18.4181C69.8128 16.0814 71.7639 14.2134 74.1483 14.2134H76.0015L77.9999 15.5217V14.2116ZM75.2544 23.7893L77.9999 21.9904V18.3454L75.2544 16.5465H74.1465C73.0876 16.5465 72.2191 17.3878 72.2191 18.4144V21.9177C72.2191 22.9462 73.0858 23.7875 74.1465 23.7875H75.2544V23.7893Z" fill="var(--fill-0, black)"/>
<path id="Vector_6" d="M94.0056 14.2116V26.802C94.0056 29.115 92.08 31.0302 89.6701 31.0302H87.7425C85.3581 31.0302 83.407 29.115 83.407 26.802H85.8151C85.8151 27.8303 86.6818 28.6717 87.7407 28.6717H89.6683C90.729 28.6717 91.5959 27.8303 91.5959 26.802V24.8159L89.5957 26.1241H87.7407C85.3563 26.1241 83.4052 24.2327 83.4052 21.9195V18.4163C83.4052 16.0795 85.3563 14.2116 87.7407 14.2116H89.5957L91.5959 15.5199V14.2116H94.0056ZM88.8523 23.7893L91.5977 21.9904V18.3454L88.8523 16.5465H87.7443C86.6854 16.5465 85.8187 17.3878 85.8187 18.4144V21.9177C85.8187 22.9462 86.6854 23.7875 87.7443 23.7875H88.8523V23.7893Z" fill="var(--fill-0, black)"/>
<path id="Vector_7" d="M107.604 18.1836V20.7058H99.4149V21.8977C99.4149 22.9262 100.282 23.7674 101.342 23.7674H103.268C104.329 23.7674 105.196 22.9262 105.196 21.8977V21.6634H107.604V21.8977C107.604 24.2109 105.676 26.1259 103.268 26.1259H101.342C98.9579 26.1259 97.0068 24.2109 97.0068 21.8977V18.4163C97.0068 16.0795 98.9579 14.2116 101.342 14.2116H103.268C105.605 14.2116 107.482 15.9632 107.604 18.1836ZM105.196 18.8379V18.4181C105.196 17.366 104.353 16.5502 103.268 16.5502H101.342C100.258 16.5502 99.4149 17.3915 99.4149 18.4181V18.8379H105.196Z" fill="var(--fill-0, black)"/>
<path id="Vector_8" d="M116.868 14.2134C119.252 14.2134 121.203 16.0814 121.203 18.4181V26.1259H118.795V18.4181C118.795 17.3896 117.928 16.5502 116.868 16.5502H115.76L113.015 18.349V26.1279H110.606V9.54182H113.015V15.5217L115.013 14.2134H116.868Z" fill="var(--fill-0, black)"/>
<path id="Vector_9" d="M132.391 14.2116H134.799V26.1259H132.391V24.8177L130.393 26.1259H128.538C126.154 26.1259 124.202 24.2345 124.202 21.9213V18.4181C124.202 16.0814 126.154 14.2134 128.538 14.2134H130.393L132.391 15.5217V14.2116ZM129.648 23.7893L132.393 21.9904V18.3454L129.648 16.5465H128.54C127.479 16.5465 126.612 17.3878 126.612 18.4144V21.9177C126.612 22.9462 127.479 23.7875 128.54 23.7875H129.648V23.7893Z" fill="var(--fill-0, black)"/>
<path id="Vector_10" d="M144.063 14.2116C146.448 14.2116 148.399 16.0814 148.399 18.4163V26.1241H145.991V18.4163C145.991 17.3878 145.124 16.5483 144.063 16.5483H142.955L140.21 18.3472V26.1259H137.802V14.2116H140.21V15.5199L142.208 14.2116H144.063Z" fill="var(--fill-0, black)"/>
<path id="Vector_11" d="M159.589 9.54H161.997V26.1259H159.589V24.8177L157.591 26.1259H155.736C153.351 26.1259 151.4 24.2345 151.4 21.9213V18.4181C151.4 16.0814 153.351 14.2134 155.736 14.2134H157.591L159.589 15.5217V9.54ZM156.842 23.7893L159.587 21.9904V18.3454L156.842 16.5465H155.734C154.673 16.5465 153.806 17.3878 153.806 18.4145V21.9177C153.806 22.9462 154.673 23.7856 155.734 23.7856H156.842V23.7893Z" fill="var(--fill-0, black)"/>
</g>
</svg>
