<svg viewBox="0 0 87 86" fill="none" xmlns="http://www.w3.org/2000/svg"><path d="M49.3976 0H84.8317C85.5526 0 86.1372 0.582831 86.1372 1.30179V55.3166C86.1372 56.6104 84.4501 57.112 83.7396 56.0294L48.3055 2.01457C47.7376 1.14878 48.3603 0 49.3976 0Z" fill="#246DFF"/><path d="M36.7394 0H1.3051C0.584315 0 0 0.582831 0 1.30179V55.3166C0 56.6104 1.68698 57.112 2.39719 56.0294L37.8315 2.01457C38.3995 1.14878 37.7767 0 36.7394 0Z" fill="#20A34E"/><path d="M42.4615 43.246L2.20808 83.6992C1.39065 84.5208 1.97401 85.9182 3.13438 85.9182H83.0357C84.1914 85.9182 84.7772 84.5306 83.9695 83.706L44.3211 43.2531C43.8118 42.7335 42.9747 42.7303 42.4615 43.246Z" fill="#F86606"/></svg>
